<svg xmlns="http://www.w3.org/2000/svg" version="1.1" xmlns:xlink="http://www.w3.org/1999/xlink" width="2000" height="353" viewBox="0 0 2000 353"><g transform="matrix(1,0,0,1,-1.2121212121212466,-0.34860753716179715)"><svg viewBox="0 0 396 70" data-background-color="#6a6868" preserveAspectRatio="xMidYMid meet" height="353" width="2000" xmlns="http://www.w3.org/2000/svg" xmlns:xlink="http://www.w3.org/1999/xlink"><g id="tight-bounds" transform="matrix(1,0,0,1,0.2400000000000091,0.06912897337485902)"><svg viewBox="0 0 395.52 69.86141324820638" height="69.86141324820638" width="395.52"><g><svg viewBox="0 0 499.64151385452067 88.25258463630183" height="69.86141324820638" width="395.52"><g transform="matrix(1,0,0,1,104.12151385452071,10.516503059143439)"><svg viewBox="0 0 395.52 67.21957851801496" height="67.21957851801496" width="395.52"><g id="textblocktransform"><svg viewBox="0 0 395.52 67.21957851801496" height="67.21957851801496" width="395.52" id="textblock"><g><svg viewBox="0 0 395.52 67.21957851801496" height="67.21957851801496" width="395.52"><g transform="matrix(1,0,0,1,0,0)"><svg width="395.52" viewBox="2.45 -37 220.63000000000002 37.5" height="67.21957851801496" data-palette-color="#ffffff"><path d="M15.2-26.15L15.2-26.15Q17.6-26.15 19.6-25.63 21.6-25.1 22.83-24.2 24.05-23.3 24.05-22.25L24.05-22.25Q24.05-21.75 23.7-21.28 23.35-20.8 22.75-20.8L22.75-20.8Q22.15-20.8 21.78-21.1 21.4-21.4 21.03-21.8 20.65-22.2 19.95-22.55L19.95-22.55Q19.3-22.85 18.1-23.1 16.9-23.35 15.35-23.35L15.35-23.35Q12.55-23.35 10.3-21.95 8.05-20.55 6.75-18.18 5.45-15.8 5.45-12.85L5.45-12.85Q5.45-9.85 6.7-7.45 7.95-5.05 10.15-3.68 12.35-2.3 15.3-2.3L15.3-2.3Q17.3-2.3 18.4-2.65 19.5-3 20.3-3.45L20.3-3.45Q21.25-4 21.68-4.53 22.1-5.05 22.8-5.05L22.8-5.05Q23.45-5.05 23.78-4.67 24.1-4.3 24.1-3.7L24.1-3.7Q24.1-2.9 22.93-1.93 21.75-0.95 19.7-0.23 17.65 0.5 15 0.5L15 0.5Q11.25 0.5 8.43-1.25 5.6-3 4.03-6.03 2.45-9.05 2.45-12.85L2.45-12.85Q2.45-16.5 4.05-19.5 5.65-22.5 8.53-24.33 11.4-26.15 15.2-26.15ZM53.65-12.8L53.65-12.8Q53.65-9 52-5.98 50.35-2.95 47.5-1.23 44.65 0.5 41 0.5L41 0.5Q37.45 0.5 34.57-1.23 31.7-2.95 30.02-5.98 28.35-9 28.35-12.8L28.35-12.8Q28.35-16.65 30.02-19.65 31.7-22.65 34.57-24.4 37.45-26.15 41-26.15L41-26.15Q44.65-26.15 47.5-24.4 50.35-22.65 52-19.65 53.65-16.65 53.65-12.8ZM50.65-12.8L50.65-12.8Q50.65-15.85 49.4-18.23 48.15-20.6 45.97-21.98 43.8-23.35 41-23.35L41-23.35Q38.3-23.35 36.1-21.98 33.9-20.6 32.62-18.23 31.35-15.85 31.35-12.8L31.35-12.8Q31.35-9.75 32.62-7.4 33.9-5.05 36.1-3.68 38.3-2.3 41-2.3L41-2.3Q43.8-2.3 45.97-3.68 48.15-5.05 49.4-7.4 50.65-9.75 50.65-12.8ZM62.95-24.5L62.95-1.5Q62.95-0.9 62.5-0.45 62.05 0 61.45 0L61.45 0Q60.8 0 60.37-0.45 59.95-0.9 59.95-1.5L59.95-1.5 59.95-24.5Q59.95-25.1 60.37-25.55 60.8-26 61.45-26L61.45-26Q62.1-26 62.52-25.55 62.95-25.1 62.95-24.5L62.95-24.5ZM61.45-29.35L61.45-29.35Q60.4-29.35 59.87-29.83 59.35-30.3 59.35-31.2L59.35-31.2 59.35-31.7Q59.35-32.6 59.92-33.08 60.5-33.55 61.5-33.55L61.5-33.55Q62.45-33.55 62.97-33.08 63.5-32.6 63.5-31.7L63.5-31.7 63.5-31.2Q63.5-30.3 62.97-29.83 62.45-29.35 61.45-29.35ZM82.79-26.15L82.79-26.15Q86.09-26.15 88.07-24.83 90.04-23.5 90.92-21.23 91.79-18.95 91.79-16.2L91.79-16.2 91.79-1.5Q91.79-0.9 91.34-0.45 90.89 0 90.29 0L90.29 0Q89.59 0 89.19-0.45 88.79-0.9 88.79-1.5L88.79-1.5 88.79-16.05Q88.79-18.05 88.14-19.7 87.49-21.35 86.02-22.35 84.54-23.35 82.14-23.35L82.14-23.35Q79.99-23.35 78.07-22.35 76.14-21.35 74.94-19.7 73.74-18.05 73.74-16.05L73.74-16.05 73.74-1.5Q73.74-0.9 73.29-0.45 72.84 0 72.24 0L72.24 0Q71.54 0 71.14-0.45 70.74-0.9 70.74-1.5L70.74-1.5 70.74-23.9Q70.74-24.5 71.17-24.95 71.59-25.4 72.24-25.4L72.24-25.4Q72.89-25.4 73.32-24.95 73.74-24.5 73.74-23.9L73.74-23.9 73.74-19.7 72.59-17.9Q72.69-19.5 73.62-20.98 74.54-22.45 75.99-23.63 77.44-24.8 79.22-25.48 80.99-26.15 82.79-26.15ZM109.29 0L109.29 0Q108.59 0 108.17-0.45 107.74-0.9 107.74-1.5L107.74-1.5 107.74-33.35 110.84-33.35 110.84-1.5Q110.84-0.9 110.39-0.45 109.94 0 109.29 0ZM121.19-32.15L97.39-32.15Q96.79-32.15 96.34-32.55 95.89-32.95 95.89-33.6L95.89-33.6Q95.89-34.2 96.34-34.6 96.79-35 97.39-35L97.39-35 121.19-35Q121.79-35 122.24-34.6 122.69-34.2 122.69-33.55L122.69-33.55Q122.69-32.9 122.24-32.52 121.79-32.15 121.19-32.15L121.19-32.15ZM126.84 0L126.84 0Q126.14 0 125.74-0.45 125.34-0.9 125.34-1.5L125.34-1.5 125.34-23.9Q125.34-24.5 125.76-24.95 126.19-25.4 126.84-25.4L126.84-25.4Q127.49-25.4 127.91-24.95 128.34-24.5 128.34-23.9L128.34-23.9 128.34-16.4 127.59-16.25Q127.74-18 128.46-19.73 129.19-21.45 130.44-22.9 131.69-24.35 133.41-25.25 135.14-26.15 137.29-26.15L137.29-26.15Q138.19-26.15 139.04-25.78 139.89-25.4 139.89-24.55L139.89-24.55Q139.89-23.8 139.49-23.4 139.09-23 138.54-23L138.54-23Q138.09-23 137.56-23.25 137.04-23.5 136.19-23.5L136.19-23.5Q134.79-23.5 133.39-22.68 131.99-21.85 130.84-20.45 129.69-19.05 129.01-17.32 128.34-15.6 128.34-13.85L128.34-13.85 128.34-1.5Q128.34-0.9 127.89-0.45 127.44 0 126.84 0ZM155.04 0.5L155.04 0.5Q151.19 0.5 148.24-1.15 145.29-2.8 143.64-5.75 141.99-8.7 141.99-12.65L141.99-12.65Q141.99-16.9 143.66-19.9 145.34-22.9 148.01-24.53 150.69-26.15 153.69-26.15L153.69-26.15Q155.89-26.15 157.96-25.38 160.04-24.6 161.66-23.08 163.29-21.55 164.26-19.35 165.24-17.15 165.34-14.25L165.34-14.25Q165.29-13.65 164.84-13.23 164.39-12.8 163.79-12.8L163.79-12.8 143.74-12.8 143.14-15.5 162.84-15.5 162.19-14.9 162.19-15.9Q161.99-18.25 160.69-19.9 159.39-21.55 157.54-22.4 155.69-23.25 153.69-23.25L153.69-23.25Q152.19-23.25 150.61-22.65 149.04-22.05 147.76-20.78 146.49-19.5 145.69-17.53 144.89-15.55 144.89-12.85L144.89-12.85Q144.89-9.9 146.09-7.5 147.29-5.1 149.56-3.7 151.84-2.3 154.99-2.3L154.99-2.3Q156.74-2.3 158.14-2.8 159.54-3.3 160.59-4.13 161.64-4.95 162.34-5.85L162.34-5.85Q162.89-6.3 163.44-6.3L163.44-6.3Q163.94-6.3 164.31-5.9 164.69-5.5 164.69-5L164.69-5Q164.69-4.4 164.19-3.95L164.19-3.95Q162.69-2.15 160.29-0.83 157.89 0.5 155.04 0.5ZM183.78-26.15L183.78-26.15Q187.08-26.15 189.06-24.83 191.03-23.5 191.91-21.23 192.78-18.95 192.78-16.2L192.78-16.2 192.78-1.5Q192.78-0.9 192.33-0.45 191.88 0 191.28 0L191.28 0Q190.58 0 190.18-0.45 189.78-0.9 189.78-1.5L189.78-1.5 189.78-16.05Q189.78-18.05 189.13-19.7 188.48-21.35 187.01-22.35 185.53-23.35 183.13-23.35L183.13-23.35Q180.98-23.35 179.06-22.35 177.13-21.35 175.93-19.7 174.73-18.05 174.73-16.05L174.73-16.05 174.73-1.5Q174.73-0.9 174.28-0.45 173.83 0 173.23 0L173.23 0Q172.53 0 172.13-0.45 171.73-0.9 171.73-1.5L171.73-1.5 171.73-23.9Q171.73-24.5 172.16-24.95 172.58-25.4 173.23-25.4L173.23-25.4Q173.88-25.4 174.31-24.95 174.73-24.5 174.73-23.9L174.73-23.9 174.73-19.7 173.58-17.9Q173.68-19.5 174.61-20.98 175.53-22.45 176.98-23.63 178.43-24.8 180.21-25.48 181.98-26.15 183.78-26.15ZM221.58-37L221.58-37Q222.23-37 222.66-36.58 223.08-36.15 223.08-35.5L223.08-35.5 223.08-1.5Q223.08-0.9 222.63-0.45 222.18 0 221.58 0L221.58 0Q220.93 0 220.51-0.45 220.08-0.9 220.08-1.5L220.08-1.5 220.08-7.45 220.93-8.15Q220.93-6.75 220.18-5.23 219.43-3.7 218.06-2.4 216.68-1.1 214.86-0.3 213.03 0.5 210.93 0.5L210.93 0.5Q207.58 0.5 204.91-1.25 202.23-3 200.68-6 199.13-9 199.13-12.85L199.13-12.85Q199.13-16.65 200.68-19.68 202.23-22.7 204.88-24.43 207.53-26.15 210.88-26.15L210.88-26.15Q212.93-26.15 214.78-25.4 216.63-24.65 218.06-23.35 219.48-22.05 220.31-20.38 221.13-18.7 221.13-16.9L221.13-16.9 220.08-17.65 220.08-35.5Q220.08-36.1 220.51-36.55 220.93-37 221.58-37ZM211.18-2.3L211.18-2.3Q213.88-2.3 215.91-3.68 217.93-5.05 219.11-7.43 220.28-9.8 220.28-12.85L220.28-12.85Q220.28-15.85 219.11-18.23 217.93-20.6 215.88-21.98 213.83-23.35 211.18-23.35L211.18-23.35Q208.58-23.35 206.51-21.98 204.43-20.6 203.26-18.23 202.08-15.85 202.08-12.85L202.08-12.85Q202.08-9.85 203.26-7.45 204.43-5.05 206.51-3.68 208.58-2.3 211.18-2.3Z" opacity="1" transform="matrix(1,0,0,1,0,0)" fill="#ffffff" class="wordmark-text-0" data-fill-palette-color="primary" id="text-0"></path></svg></g></svg></g></svg></g></svg></g><g><svg viewBox="0 0 88.25258463630182 88.25258463630183" height="88.25258463630183" width="88.25258463630182"><g><svg></svg></g><g id="icon-0"><svg viewBox="0 0 88.25258463630182 88.25258463630183" height="88.25258463630183" width="88.25258463630182"><g><path transform="scale(0.88253,0.88253)" d="M30 100c-16.569 0-30-13.431-30-30v-40c0-16.569 13.431-30 30-30h40c16.569 0 30 13.431 30 30v40c0 16.569-13.431 30-30 30z" fill="#3d9970" fill-rule="nonzero" stroke="none" stroke-width="1" stroke-linecap="butt" stroke-linejoin="miter" stroke-miterlimit="10" stroke-dasharray="" stroke-dashoffset="0" font-family="none" font-weight="none" font-size="none" text-anchor="none" style="mix-blend-mode: normal" data-fill-palette-color="accent"></path></g><g transform="matrix(1,0,0,1,17.650516927260355,20.800952442881208)"><svg viewBox="0 0 52.95155078178111 46.65067975053942" height="46.65067975053942" width="52.95155078178111"><g><svg xmlns="http://www.w3.org/2000/svg" xmlns:xlink="http://www.w3.org/1999/xlink" version="1.1" x="0" y="0" viewBox="6.3 11.5 87.4 77" style="enable-background:new 0 0 100 100;" xml:space="preserve" height="46.65067975053942" width="52.95155078178111" class="icon-dxe-0" data-fill-palette-color="quaternary" id="dxe-0"><path d="M72.3 12.3L71.9 11.5H28.2L6.3 50 28.1 88.5H71.8L93.7 50zM33.3 25.3L9.9 47.7 28.5 14.9zM70.7 14.8L77.1 50.5 36.9 25.8zM35.5 27.3L76.5 52.5 35.5 75.8zM77 54.5L69.8 85.3 37.2 77.2zM33.5 75L9.9 50.5 33.5 27.8zM33.2 77.6L28.6 85.3 11.5 55.1zM35 78.6L66.4 86.5H30.2zM79.3 53.3L90.9 50.8 72.1 84zM90.7 48.9L79.3 51.4 73.4 18.3zM35 24.3L30 13.5H68.2z" fill="#f9f7f4" data-fill-palette-color="quaternary"></path></svg></g></svg></g></svg></g></svg></g></svg></g><defs></defs></svg><rect width="395.52" height="69.86141324820638" fill="none" stroke="none" visibility="hidden"></rect></g></svg></g></svg>